<svg id="SvgjsSvg1001" width="288" height="288" xmlns="http://www.w3.org/2000/svg" version="1.1" xmlns:xlink="http://www.w3.org/1999/xlink" xmlns:svgjs="http://svgjs.com/svgjs"><defs id="SvgjsDefs1002"></defs><g id="SvgjsG1008" transform="matrix(0.9167,0,0,0.9167,11.995478046423443,11.994992182159422)"><svg xmlns="http://www.w3.org/2000/svg" width="288" height="288" enable-background="new 0 0 44.999 44.999" viewBox="0 0 44.999 44.999"><path d="M42.558 23.378l2.406-10.92c.18-.816-.336-1.624-1.152-1.803-.816-.182-1.623.335-1.802 1.151l-2.145 9.733h-9.647c-.835 0-1.512.677-1.512 1.513 0 .836.677 1.513 1.512 1.513h.573l-3.258 7.713c-.325.771.034 1.657.805 1.982.19.081.392.12.588.12.59 0 1.15-.348 1.394-.925l2.974-7.038 4.717.001 2.971 7.037c.327.77 1.215 1.127 1.982.805.77-.325 1.13-1.212.805-1.982l-3.257-7.713h.573C41.791 24.564 42.403 24.072 42.558 23.378zM14.208 24.564h.573c.835 0 1.512-.677 1.512-1.513 0-.836-.677-1.513-1.512-1.513H5.134L2.99 11.806C2.809 10.99 2 10.472 1.188 10.655c-.815.179-1.332.987-1.152 1.803l2.406 10.92c.153.693.767 1.187 1.477 1.187h.573L1.234 32.28c-.325.77.035 1.655.805 1.98.768.324 1.656-.036 1.982-.805l2.971-7.037 4.717-.001 2.972 7.038c.244.577.804.925 1.394.925.196 0 .396-.039.588-.12.77-.325 1.13-1.212.805-1.98L14.208 24.564z" fill="#ec9424" class="color000 svgShape"></path><path d="M24.862,31.353h-0.852V18.308h8.13c0.835,0,1.513-0.677,1.513-1.512s-0.678-1.513-1.513-1.513H12.856
			c-0.835,0-1.513,0.678-1.513,1.513c0,0.834,0.678,1.512,1.513,1.512h8.13v13.045h-0.852c-0.835,0-1.512,0.679-1.512,1.514
			s0.677,1.513,1.512,1.513h4.728c0.837,0,1.514-0.678,1.514-1.513S25.699,31.353,24.862,31.353z" fill="#ec9424" class="color000 svgShape"></path></svg></g></svg>